<svg width="32" height="32" viewBox="0 0 32 32" fill="none" xmlns="http://www.w3.org/2000/svg">
<path d="M19.8096 16C19.8096 18.1039 18.104 19.8095 16.0001 19.8095C13.8961 19.8095 12.1906 18.1039 12.1906 16C12.1906 13.8961 13.8961 12.1905 16.0001 12.1905C18.104 12.1905 19.8096 13.8961 19.8096 16Z" fill="#1D1D1D"/>
<path fill-rule="evenodd" clip-rule="evenodd" d="M16.0001 32C24.0606 32 30.729 26.0395 31.838 18.2857H22.467C21.5257 20.949 18.9857 22.8571 16.0001 22.8571C13.0144 22.8571 10.4745 20.949 9.53312 18.2857H0.162109C1.27121 26.0395 7.93957 32 16.0001 32ZM9.53312 13.7143H0.162109C1.27121 5.96047 7.93957 0 16.0001 0C24.0606 0 30.729 5.96047 31.838 13.7143H22.467C21.5257 11.051 18.9857 9.14286 16.0001 9.14286C13.0144 9.14286 10.4745 11.051 9.53312 13.7143ZM19.8096 16C19.8096 18.1039 18.104 19.8095 16.0001 19.8095C13.8961 19.8095 12.1906 18.1039 12.1906 16C12.1906 13.8961 13.8961 12.1905 16.0001 12.1905C18.104 12.1905 19.8096 13.8961 19.8096 16Z" fill="#1D1D1D"/>
</svg>
