<svg width="128" height="128" viewBox="0 0 128 128" fill="none" xmlns="http://www.w3.org/2000/svg">
<path d="M79.2382 64C79.2382 72.4158 72.4158 79.2381 64.0001 79.2381C55.5843 79.2381 48.762 72.4158 48.762 64C48.762 55.5842 55.5843 48.7619 64.0001 48.7619C72.4158 48.7619 79.2382 55.5842 79.2382 64Z" fill="#1D1D1D"/>
<path fill-rule="evenodd" clip-rule="evenodd" d="M64.0001 128C96.2421 128 122.916 104.158 127.352 73.1429H89.8679C86.1025 83.796 75.9426 91.4286 64.0001 91.4286C52.0575 91.4286 41.8976 83.796 38.1322 73.1429H0.648193C5.08458 104.158 31.758 128 64.0001 128ZM38.1322 54.8571H0.648193C5.08458 23.8419 31.758 0 64.0001 0C96.2421 0 122.916 23.8419 127.352 54.8571H89.8679C86.1025 44.204 75.9426 36.5714 64.0001 36.5714C52.0575 36.5714 41.8976 44.204 38.1322 54.8571ZM79.2382 64C79.2382 72.4158 72.4158 79.2381 64.0001 79.2381C55.5843 79.2381 48.762 72.4158 48.762 64C48.762 55.5842 55.5843 48.7619 64.0001 48.7619C72.4158 48.7619 79.2382 55.5842 79.2382 64Z" fill="#1D1D1D"/>
</svg>
